<svg xmlns="http://www.w3.org/2000/svg" version="1.1" viewBox="80 180 295 280" width="200" height="200"><path fill="#f0f2f8" d="M288.137 192.899H164.643a20.53 20.53 0 0 0 -17.781 10.27L85.111 310.122a20.52 20.52 0 0 0 0 20.533l61.751 106.952a20.53 20.53 0 0 0 17.781 10.27h123.493a20.53 20.53 0 0 0 17.781 -10.27l61.751 -106.952a20.52 20.52 0 0 0 0 -20.533l-61.751 -106.952a20.53 20.53 0 0 0 -17.781 -10.27m11.981 110.92 -17.538 -30.195c-1.817 -3.124 0.441 -7.039 4.052 -7.047l29.032 -0.023c4.044 0 7.777 2.151 9.799 5.656l17.051 29.534c1.809 3.132 -0.456 7.039 -4.075 7.032l-29.86 -0.068a9.83 9.83 0 0 1 -8.469 -4.888Zm3.816 -54.848 -29.648 0.023a10.41 10.41 0 0 1 -9.016 -5.185l-15.265 -26.28c-1.817 -3.124 0.441 -7.047 4.052 -7.047h30.035a9.93 9.93 0 0 1 8.605 4.972l15.287 26.478c1.802 3.124 -0.449 7.032 -4.059 7.032Zm-113.93 -5.975 -13.729 -25.603c-1.672 -3.124 0.585 -6.903 4.135 -6.903h39.036c3.793 0 7.29 2.015 9.198 5.291l15.219 26.196c1.817 3.124 -0.441 7.039 -4.052 7.047l-39.659 0.038a11.49 11.49 0 0 1 -10.141 -6.066Zm-28.439 -15.789 13.311 24.813a11.64 11.64 0 0 1 -0.175 11.304l-50.431 87.529c-1.589 2.76 -5.572 2.76 -7.169 0l-14.39 -24.919a11.12 11.12 0 0 1 0 -11.114l50.659 -87.749c1.84 -3.185 6.454 -3.109 8.195 0.129Zm-27.8 142.399 56.961 -98.856a8.16 8.16 0 0 1 7.077 -4.09l54.856 -0.046a9.56 9.56 0 0 1 8.271 4.759l24.402 42.008a9.62 9.62 0 0 1 0.023 9.616l-58.877 102.588a9.32 9.32 0 0 1 -8.081 4.683H167.22a7.4 7.4 0 0 1 -6.408 -3.702l-27.04 -46.836a10.13 10.13 0 0 1 0 -10.126Zm149.56 60.664h-33.639c-2.493 0 -4.059 -2.699 -2.813 -4.865l54.757 -95.412a7.34 7.34 0 0 1 6.386 -3.687l33.692 0.084c3.603 0.008 5.853 3.915 4.052 7.032l-52.666 91.216a11.27 11.27 0 0 1 -9.761 5.633Z"/></svg>
